<svg width="25" height="20" fill="none" xmlns="http://www.w3.org/2000/svg"><path d="M24.5 2.309a9.83 9.83 0 0 1-2.828.775A4.932 4.932 0 0 0 23.837.36a9.864 9.864 0 0 1-3.127 1.195A4.916 4.916 0 0 0 17.116 0c-3.179 0-5.515 2.966-4.797 6.045A13.978 13.978 0 0 1 2.171.901a4.93 4.93 0 0 0 1.523 6.574 4.903 4.903 0 0 1-2.229-.616c-.054 2.281 1.581 4.415 3.949 4.89a4.935 4.935 0 0 1-2.224.084 4.928 4.928 0 0 0 4.6 3.419 9.9 9.9 0 0 1-7.29 2.04 13.94 13.94 0 0 0 7.548 2.212c9.142 0 14.307-7.721 13.995-14.646A10.025 10.025 0 0 0 24.5 2.309Z" fill="#fff"/></svg>